<svg width="26" height="29" viewBox="0 0 26 29" fill="none" xmlns="http://www.w3.org/2000/svg">
<g filter="url(#filter0_d_424_171)">
<path d="M21.7823 3.21745C21.681 3.1167 21.5532 3.04695 21.4137 3.01639C21.2742 2.98584 21.1288 2.99574 20.9948 3.04495L4.49476 9.04495C4.35246 9.09892 4.22995 9.19491 4.14349 9.32016C4.05704 9.44542 4.01074 9.59401 4.01074 9.7462C4.01074 9.89839 4.05704 10.047 4.14349 10.1722C4.22995 10.2975 4.35246 10.3935 4.49476 10.4474L10.9373 13.0199L15.6923 8.24995L16.7498 9.30745L11.9723 14.0849L14.5523 20.5275C14.6078 20.667 14.704 20.7866 14.8284 20.8709C14.9528 20.9551 15.0995 21.0001 15.2498 20.9999C15.4013 20.9968 15.5484 20.9479 15.6716 20.8595C15.7947 20.7711 15.8882 20.6475 15.9398 20.5049L21.9398 4.00495C21.9909 3.87226 22.0032 3.72777 21.9753 3.58834C21.9474 3.44891 21.8805 3.32028 21.7823 3.21745Z" fill="white"/>
</g>
<defs>
<filter id="filter0_d_424_171" x="-3" y="0" width="32" height="32" filterUnits="userSpaceOnUse" color-interpolation-filters="sRGB">
<feFlood flood-opacity="0" result="BackgroundImageFix"/>
<feColorMatrix in="SourceAlpha" type="matrix" values="0 0 0 0 0 0 0 0 0 0 0 0 0 0 0 0 0 0 127 0" result="hardAlpha"/>
<feOffset dy="4"/>
<feGaussianBlur stdDeviation="2"/>
<feComposite in2="hardAlpha" operator="out"/>
<feColorMatrix type="matrix" values="0 0 0 0 0 0 0 0 0 0 0 0 0 0 0 0 0 0 0.25 0"/>
<feBlend mode="normal" in2="BackgroundImageFix" result="effect1_dropShadow_424_171"/>
<feBlend mode="normal" in="SourceGraphic" in2="effect1_dropShadow_424_171" result="shape"/>
</filter>
</defs>
</svg>
